<?xml version="1.0" encoding="utf-8"?>
<!-- Generator: Adobe Illustrator 19.1.0, SVG Export Plug-In . SVG Version: 6.00 Build 0)  -->
<svg version="1.1" id="Layer_1" xmlns="http://www.w3.org/2000/svg" xmlns:xlink="http://www.w3.org/1999/xlink" x="0px" y="0px"
	 viewBox="0 0 211.7 221.4" style="enable-background:new 0 0 211.7 221.4;" xml:space="preserve">
<style type="text/css">
	.st0{fill:#010101;}
	.st1{fill:#231F20;}
	.st2{fill:none;stroke:#010101;stroke-miterlimit:10;}
</style>
<g id="Layer_2_copy">
	<g>
		<g>
			<g>
				<path class="st0" d="M51.5,60.5V45h-10v15.5h-7V25.7h7v13.6h10V25.7h7.1v34.8L51.5,60.5L51.5,60.5z"/>
				<path class="st0" d="M84.7,60.5l-2.5-8.2H72l-2.5,8.3h-7.3l11.4-34.9h7.6l11,34.9L84.7,60.5L84.7,60.5z M78.6,39.5
					c-0.4-1.6-1.4-6.2-1.4-6.2s-1,4.1-1.7,6.7c-0.7,2.5-1.1,4.2-1.9,6.5h6.8C80.5,46.5,79.4,42.8,78.6,39.5z"/>
				<path class="st0" d="M113.6,46.6c-1.6,0.8-3.1,1.2-7,1.2h-3.9v12.8h-7V25.7h9.2c5.9,0,7.7,0.6,9.7,1.7c3.3,1.8,5,5,5,9
					C119.7,41.1,117.4,44.8,113.6,46.6z M107.3,31.4h-4.5V42h3.7c2.9,0,3.7-0.4,4.7-1.8c0.6-1,0.9-2,0.9-3.6
					C112,33.3,110.2,31.4,107.3,31.4z"/>
				<path class="st0" d="M142.5,46.6c-1.6,0.8-3.1,1.2-7,1.2h-3.9v12.8h-7V25.7h9.2c5.9,0,7.7,0.6,9.7,1.7c3.3,1.8,5,5,5,9
					C148.5,41.1,146.3,44.8,142.5,46.6z M136.1,31.4h-4.5V42h3.7c2.9,0,3.7-0.4,4.7-1.8c0.6-1,0.9-2,0.9-3.6
					C140.8,33.3,139.1,31.4,136.1,31.4z"/>
				<path class="st0" d="M166.9,46.2v14.3h-7.3V46.2l-10.8-20.5h8.4l4.5,9.5c0.9,1.9,1.4,3.2,1.8,4.5c0.4-1,1.1-2.7,1.9-4.4l4.5-9.6
					h8.3L166.9,46.2z"/>
				<path class="st0" d="M17,109.2V93.7H7v15.5H0V74.3h7v13.5h10V74.3h7.1v34.8H17V109.2z"/>
				<path class="st0" d="M52.4,108.1c-2.1,1.2-4.1,1.6-7,1.6c-5.3,0-8.7-1.5-11.3-4.9c-2.7-3.4-4-7.8-4-12.9
					c0-7.5,2.9-13.5,7.9-16.3c2.1-1.1,4.6-1.7,7.2-1.7c9.3,0,15,6.8,15,17.7C60.2,99.4,57.5,105.4,52.4,108.1z M51.2,83.7
					c-0.6-1.8-2.4-4.4-6.1-4.4c-2.4,0-4.4,1.2-5.4,3.1c-1.2,2.3-1.8,5.3-1.8,9.5c0,6,1,9.8,3.1,11.3c1.1,0.8,2.5,1.2,4.2,1.2
					c4.9,0,6.9-3.7,6.9-12.6C52.1,88.2,51.8,85.7,51.2,83.7z"/>
				<path class="st0" d="M84.6,109.2H66.2V74.3h7.2v29h12.5L84.6,109.2z"/>
				<path class="st0" d="M90.1,109.2V74.3h7.3v34.8h-7.3V109.2z"/>
				<path class="st0" d="M126.9,103.9c-2.1,2.9-5.2,4.8-8.5,5c-1.3,0.1-3,0.2-5,0.2h-8.5V74.3h7c2,0,4.7,0.1,6.1,0.2
					c3,0.3,5.5,1.4,7.6,3.5c3.2,3.2,4.8,7.6,4.8,13.9C130.4,96.6,129.2,100.8,126.9,103.9z M120.8,82.8c-1.2-1.9-2.8-2.9-5.5-2.9
					h-3.2v23.6h3.8c4.6,0,6.7-3.6,6.7-10.9C122.5,88.5,122.2,85.1,120.8,82.8z"/>
				<path class="st0" d="M154.4,109.2l-2.5-8.3h-10.2l-2.5,8.3h-7.3l11.4-34.9h7.6l11,34.9H154.4z M148.4,88.1
					c-0.4-1.6-1.4-6.2-1.4-6.2s-1,4.1-1.7,6.7c-0.7,2.5-1.1,4.2-1.9,6.5h6.8C150.3,95.1,149.1,91.4,148.4,88.1z"/>
				<path class="st0" d="M183.5,80.2h-8.3v29h-7.1v-29h-8.5v-5.9h25.1L183.5,80.2z"/>
				<path class="st0" d="M204.2,109.2l-2.5-8.3h-10.2l-2.5,8.3h-7.3l11.4-34.9h7.6l11,34.9H204.2z M198.1,88.1
					c-0.4-1.6-1.4-6.2-1.4-6.2s-1,4.1-1.7,6.7c-0.7,2.5-1.1,4.2-1.9,6.5h6.8C200,95.1,198.9,91.4,198.1,88.1z"/>
			</g>
			<g>
				<path class="st0" d="M82.1,129.8h-5.7v4.1H81v3h-4.6v8h-3.6v-18.1h9.8L82.1,129.8z"/>
				<path class="st0" d="M93.1,144.9c-0.7-1.2-1-1.7-1.7-3c-1.8-3.2-2.3-4.1-3-4.4c-0.2-0.1-0.3-0.1-0.6-0.2v7.5h-3.6v-18.1h6.7
					c3.2,0,5.3,2.1,5.3,5.3c0,2.7-1.8,4.9-4,5c0.4,0.3,0.5,0.4,0.8,0.8c1,1.3,4.3,7,4.3,7h-4.2C93.1,144.8,93.1,144.9,93.1,144.9z
					 M91.2,130c-0.4-0.2-1.2-0.3-2.1-0.3h-1.3v4.9H89c1.6,0,2.2-0.2,2.7-0.6c0.4-0.4,0.7-1.1,0.7-1.8
					C92.5,131.1,92.1,130.4,91.2,130z"/>
				<path class="st0" d="M110.5,144.4c-1.1,0.6-2.1,0.8-3.6,0.8c-2.7,0-4.5-0.8-5.9-2.5c-1.4-1.8-2.1-4.1-2.1-6.7
					c0-3.9,1.5-7,4.1-8.4c1.1-0.6,2.4-0.9,3.7-0.9c4.8,0,7.8,3.5,7.8,9.2C114.5,139.9,113.1,143,110.5,144.4z M109.9,131.7
					c-0.3-0.9-1.2-2.3-3.2-2.3c-1.2,0-2.3,0.6-2.8,1.6c-0.6,1.2-0.9,2.8-0.9,4.9c0,3.1,0.5,5.1,1.6,5.8c0.6,0.4,1.3,0.6,2.2,0.6
					c2.5,0,3.6-1.9,3.6-6.5C110.4,134.1,110.2,132.8,109.9,131.7z"/>
				<path class="st0" d="M132.2,144.9l-0.7-9.6c-0.1-1.1-0.1-2.1-0.1-3c-0.2,1-0.4,1.7-0.7,2.8l-2.9,9.9h-3.1l-2.6-9.5
					c-0.2-0.9-0.5-2.2-0.7-3.2c0,1.1-0.1,2.1-0.1,3.2l-0.6,9.4h-3.6l1.7-18.1h4.7l2.4,9c0.3,1.3,0.5,1.9,0.6,2.9
					c0.2-0.9,0.4-1.9,0.7-2.9l2.4-9h4.6l1.6,18.1L132.2,144.9L132.2,144.9z"/>
			</g>
			<g>
				<path class="st1" d="M61.2,183c-1.6,0.8-3.1,1.2-7,1.2h-3.9V197h-7v-34.8h9.2c5.9,0,7.7,0.6,9.7,1.7c3.3,1.8,5,5,5,9
					C67.2,177.5,65,181.2,61.2,183z M54.8,167.9h-4.5v10.6H54c2.9,0,3.7-0.4,4.7-1.8c0.6-1,0.9-2,0.9-3.6
					C59.6,169.8,57.8,167.9,54.8,167.9z"/>
				<path class="st1" d="M72.2,197v-34.8h7.3V197H72.2z"/>
				<path class="st1" d="M108,168h-8.3v29h-7.1v-29h-8.5v-5.8h25.1L108,168z"/>
				<path class="st1" d="M125.8,197.6c-4.8,0-8.5-1.6-11.4-4.8c-2.8-3.2-4.2-7.4-4.2-12.5c0-4.4,0.8-7.8,2.4-10.8
					c2.7-5.1,7.7-8.1,13.3-8.1c3.5,0,6.9,1.1,8.8,2.8l-3.2,4.8c-1.8-1.3-3.6-2-5.6-2c-2.4,0-4.7,1.2-5.9,3c-1.4,2-2,4.9-2,9
					c0,4.8,0.4,7.4,1.5,9.3c1.4,2.6,3.7,3.9,6.7,3.9c2.1,0,3.9-0.6,6-2.3l3.2,4.4C132.7,196.6,129.7,197.6,125.8,197.6z"/>
				<path class="st1" d="M157.5,197v-15.5h-10V197h-7v-34.8h7v13.5h10v-13.5h7.1V197H157.5z"/>
			</g>
		</g>
		<g>
			<g>
				<g>
					<g>
						<g>
							<path class="st2" d="M97.5,215.9h-76c-1.4,0-2.5,1.1-2.5,2.5s1.1,2.5,2.5,2.5s2.5-1.1,2.5-2.5"/>
							<path class="st2" d="M104.9,215.9h76c1.4,0,2.5-1.1,2.5-2.5s-1.1-2.5-2.5-2.5s-2.5,1.1-2.5,2.5"/>
						</g>
					</g>
				</g>
				<line class="st2" x1="99.7" y1="218.5" x2="102.7" y2="213.4"/>
			</g>
			<g>
				<g>
					<g>
						<g>
							<path class="st2" d="M97.5,5.5h-76C20.1,5.5,19,6.6,19,8s1.1,2.5,2.5,2.5S24,9.4,24,8"/>
							<path class="st2" d="M104.9,5.5h76c1.4,0,2.5-1.1,2.5-2.5s-1.1-2.5-2.5-2.5s-2.5,1.1-2.5,2.5"/>
						</g>
					</g>
				</g>
				<line class="st2" x1="99.7" y1="8" x2="102.7" y2="3"/>
			</g>
		</g>
	</g>
</g>
</svg>
